# xmcd
#
# Track frame offsets: 
#        150
#        1566
#        14697
#        39433
#        57345
#        83249
#        93629
#        107812
#        117792
#        138115
#        152682
#        170706
#        194524
#        203218
#
# Disc length: 3034 seconds
#
# Revision: 0
# Processed by: cddbd v1.5.1PL2 Copyright (c) Steve Scherf et al.
# Submitted via: ExactAudioCopy v0.95b2
#
DISCID=b40bd80e
DTITLE=The Incredible H.A.W.K. Vol. 1 - H.A.W.K.
DYEAR=2005
DGENRE=Screw
TTITLE0=Intro
TTITLE1=Flow 1
TTITLE2=Patiently Waiting
TTITLE3=Flow 2
TTITLE4=That Other Shit
TTITLE5=Flow 3
TTITLE6=Flow 4
TTITLE7=Victory Flow
TTITLE8=What You Boys Know
TTITLE9=Cosa Nostra
TTITLE10=I Am Ready
TTITLE11=Gangsta Life Flow
TTITLE12=Staight From The Street Flow
TTITLE13=You Already Know - If You Only Knew
EXTD=
EXTT0=
EXTT1=
EXTT2=
EXTT3=
EXTT4=
EXTT5=
EXTT6=
EXTT7=
EXTT8=
EXTT9=
EXTT10=
EXTT11=
EXTT12=
EXTT13=
PLAYORDER=
